<svg width="32" height="20" viewBox="0 0 32 20" fill="none" xmlns="http://www.w3.org/2000/svg">
<rect x="6.10352e-05" width="32" height="20" rx="2" fill="#F1F1F1"/>
<path d="M20.1429 2.5311H11.8577V17.4689H20.1429V2.5311Z" fill="#FF5F00"/>
<path d="M12.3837 9.99999C12.3824 8.56138 12.7074 7.14132 13.3339 5.84732C13.9605 4.55332 14.8723 3.4193 16.0003 2.5311C14.6034 1.42954 12.9258 0.744487 11.1593 0.554257C9.39274 0.364027 7.60847 0.676284 6.01044 1.45535C4.41241 2.23442 3.0651 3.44886 2.12248 4.95986C1.17987 6.47085 0.679993 8.21744 0.679993 9.99999C0.679993 11.7825 1.17987 13.5291 2.12248 15.0401C3.0651 16.5511 4.41241 17.7656 6.01044 18.5446C7.60847 19.3237 9.39274 19.636 11.1593 19.4457C12.9258 19.2555 14.6034 18.5705 16.0003 17.4689C14.8723 16.5807 13.9605 15.4467 13.3339 14.1527C12.7074 12.8587 12.3824 11.4386 12.3837 9.99999Z" fill="#EB001B"/>
<path d="M31.32 10C31.32 11.7825 30.8202 13.5291 29.8777 15.0401C28.9351 16.5511 27.5878 17.7656 25.9898 18.5446C24.3918 19.3237 22.6076 19.636 20.8411 19.4457C19.0745 19.2555 17.397 18.5705 16.0002 17.4689C17.1272 16.5798 18.0382 15.4456 18.6647 14.1518C19.2912 12.858 19.6167 11.4384 19.6167 10C19.6167 8.56161 19.2912 7.142 18.6647 5.8482C18.0382 4.5544 17.1272 3.4202 16.0002 2.53111C17.397 1.42954 19.0745 0.744483 20.8411 0.554255C22.6076 0.364027 24.3918 0.676297 25.9898 1.45537C27.5878 2.23445 28.9351 3.4489 29.8777 4.95989C30.8202 6.47089 31.32 8.21747 31.32 10Z" fill="#F79E1B"/>
</svg>
